<?xml version="1.0" encoding="utf-8"?>
<!-- Generator: Adobe Illustrator 24.3.0, SVG Export Plug-In . SVG Version: 6.00 Build 0)  -->
<svg version="1.1" id="Layer_1" xmlns="http://www.w3.org/2000/svg" xmlns:xlink="http://www.w3.org/1999/xlink" x="0px" y="0px"
	 viewBox="0 0 319.4 319.4" style="enable-background:new 0 0 319.4 319.4;" xml:space="preserve">
<path d="M319.4,164.2v-9c0-13.5-10.9-24.4-24.4-24.4h0c-10,0-19-6-22.6-15.3c-0.6-1.4-1.1-2.8-1.7-4.2c-4-9.1-1.9-19.8,5.2-26.9l0,0
	c9.5-9.5,9.5-25,0-34.5l-6.4-6.4c-9.5-9.5-25-9.5-34.5,0l0,0c-7.1,7.1-17.7,9.2-26.9,5.2c-1.4-0.6-2.8-1.2-4.2-1.7
	c-9.3-3.6-15.3-12.7-15.3-22.6v0c0-13.5-10.9-24.4-24.4-24.4h-9c-13.5,0-24.4,10.9-24.4,24.4v0c0,10-6,19-15.3,22.6
	c-1.4,0.6-2.8,1.1-4.2,1.7c-9.1,4-19.8,1.9-26.9-5.2l0,0c-9.5-9.5-25-9.5-34.5,0L43.6,50c-9.5,9.5-9.5,25,0,34.5l0,0
	c7.1,7.1,9.2,17.7,5.2,26.9c-0.6,1.4-1.2,2.8-1.7,4.2c-3.6,9.3-12.7,15.3-22.6,15.3h0C10.9,130.8,0,141.7,0,155.2v9
	c0,13.5,10.9,24.4,24.4,24.4h0c10,0,19,6,22.6,15.3c0.6,1.4,1.1,2.8,1.7,4.2c4,9.1,1.9,19.8-5.2,26.9l0,0c-9.5,9.5-9.5,25,0,34.5
	l6.4,6.4c9.5,9.5,25,9.5,34.5,0l0,0c7.1-7.1,17.7-9.2,26.9-5.2c1.4,0.6,2.8,1.2,4.2,1.7c9.3,3.6,15.3,12.7,15.3,22.6v0
	c0,13.5,10.9,24.4,24.4,24.4h9c13.5,0,24.4-10.9,24.4-24.4v0c0-10,6-19,15.3-22.6c1.4-0.6,2.8-1.1,4.2-1.7c9.1-4,19.8-1.9,26.9,5.2
	l0,0c9.5,9.5,25,9.5,34.5,0l6.4-6.4c9.5-9.5,9.5-25,0-34.5l0,0c-7.1-7.1-9.2-17.7-5.2-26.9c0.6-1.4,1.2-2.8,1.7-4.2
	c3.6-9.3,12.7-15.3,22.6-15.3h0C308.5,188.6,319.4,177.7,319.4,164.2z M159.7,232.7c-40.3,0-73-32.8-73-73s32.8-73,73-73
	s73,32.8,73,73S200,232.7,159.7,232.7z"/>
</svg>
